<?xml version="1.0" encoding="UTF-8" standalone="no"?>
<svg width="153px" height="40px" viewBox="0 0 153 40" version="1.1" xmlns="http://www.w3.org/2000/svg" xmlns:xlink="http://www.w3.org/1999/xlink">
    <!-- Generator: Sketch 3.6.1 (26313) - http://www.bohemiancoding.com/sketch -->
    <title>ydf-logo</title>
    <desc>Created with Sketch.</desc>
    <defs></defs>
    <g id="Page-1" stroke="none" stroke-width="1" fill="none" fill-rule="evenodd">
        <g id="ydf-logo">
            <g id="Group">
                <path d="M148.085033,33.2736766 L145.369815,26.7691063 L143.475476,26.7691063 L147.201008,35.5471187 L146.94843,36.3049327 C146.632707,37.2522002 146.380129,37.6942584 146.12755,37.946863 C145.938117,38.1363165 145.496105,38.4520724 144.801513,38.4520724 C144.422645,38.4520724 144.106923,38.3889213 143.980633,38.3257701 L144.106923,39.778247 C144.422645,39.8413981 144.738369,39.9045493 145.117237,39.9045493 C145.622393,39.9045493 146.569563,39.8413981 147.264154,39.1467352 C147.516732,38.8941306 148.021889,38.3257701 148.71648,36.3049327 L152,26.7691063 L150.23195,26.7691063 L148.085033,33.2736766 L148.085033,33.2736766 L148.085033,33.2736766 Z M138.802775,26.7691063 L137.161015,26.7691063 L137.161015,35.9260257 L138.802775,35.9260257 L138.802775,29.7372112 C139.118497,29.3583042 139.434221,28.9793972 139.813089,28.7267926 C140.191956,28.4110366 140.633969,28.158432 141.328559,28.158432 C141.644282,28.158432 142.02315,28.2847343 142.275728,28.4110366 L142.780886,26.8954086 C142.402018,26.7059551 142.02315,26.5796528 141.517993,26.5796528 C140.886547,26.5796528 140.38139,26.7059551 139.939378,27.0217109 C139.56051,27.2743157 139.181643,27.5900715 138.865919,27.9689785 L138.802775,26.7691063 L138.802775,26.7691063 L138.802775,26.7691063 L138.802775,26.7691063 Z M130.530829,27.9689785 C131.35171,27.9689785 131.983156,28.2215832 132.551458,28.8530949 C133.182903,29.5477577 133.435482,30.4950252 133.435482,31.3791416 C133.435482,32.2001068 133.182903,33.2105255 132.551458,33.8420371 C132.046301,34.4735488 131.35171,34.7261535 130.530829,34.7261535 C129.70995,34.7261535 129.078503,34.4735488 128.510202,33.8420371 C127.878756,33.1473743 127.626177,32.2001068 127.626177,31.3791416 C127.626177,30.4950252 127.878756,29.5477577 128.510202,28.8530949 C129.078503,28.2215832 129.70995,27.9689785 130.530829,27.9689785 L130.530829,27.9689785 L130.530829,27.9689785 Z M125.858128,31.3791416 C125.858128,33.0842231 126.489574,34.157793 127.121021,34.7893047 C128.06819,35.7997234 129.331082,36.1154792 130.530829,36.1154792 C131.604289,36.1154792 132.930326,35.9260257 134.003784,34.7893047 C134.572085,34.2209442 135.266676,33.1473743 135.266676,31.3159904 C135.266676,29.8635135 134.761519,28.5373391 133.877495,27.7163738 C133.182903,27.0217109 132.046301,26.5165016 130.657119,26.5165016 C128.762781,26.5165016 127.752466,27.400618 127.310454,27.779525 C126.552719,28.4741878 125.858128,29.67406 125.858128,31.3791416 L125.858128,31.3791416 L125.858128,31.3791416 Z M120.617125,26.7691063 L119.227943,26.7691063 L119.227943,28.158432 L120.617125,28.158432 L120.617125,33.1473743 C120.617125,33.9051883 120.617125,34.915607 121.311716,35.5471187 C121.816873,36.052328 122.574608,36.1154792 123.14291,36.1154792 C123.521777,36.1154792 123.96379,36.1154792 124.405802,35.9891769 C124.721526,35.9260257 124.974103,35.7997234 125.226682,35.673421 L124.65838,34.4103977 C124.532091,34.4735488 124.342658,34.5367 124.216368,34.5998512 C124.026934,34.6630023 123.648066,34.7261535 123.458633,34.7261535 C123.079765,34.7261535 122.764042,34.5998512 122.574608,34.4735488 C122.258885,34.157793 122.258885,33.5894325 122.258885,33.021072 L122.258885,28.2215832 L124.153223,28.2215832 L124.153223,26.8322575 L122.258885,26.8322575 L122.258885,24.4325131 L120.617125,24.4325131 L120.617125,26.7691063 L120.617125,26.7691063 L120.617125,26.7691063 Z M117.333605,33.7157348 C116.386436,34.5998512 115.439266,34.7261535 114.93411,34.7261535 C114.176374,34.7261535 113.544928,34.4735488 113.039771,34.0314906 C112.597759,33.5894325 112.155747,32.7684673 112.155747,31.505444 C112.155747,30.4950252 112.408324,29.4214554 113.102916,28.7267926 C113.481784,28.3478855 114.050085,28.0321297 114.997254,28.0321297 C115.565555,28.0321297 116.323291,28.158432 117.333605,28.9162461 L118.280774,27.779525 C117.207316,26.8322575 116.007568,26.642804 114.997254,26.642804 C113.734361,26.642804 112.597759,26.9585598 111.65059,27.9689785 C110.577131,29.1056995 110.387697,30.4950252 110.387697,31.505444 C110.387697,33.2736766 111.019143,34.3472465 111.65059,34.9787581 C112.660903,35.9891769 113.923796,36.1786304 114.997254,36.1786304 C115.881279,36.1786304 117.333605,36.052328 118.470208,34.7261535 L117.333605,33.7157348 L117.333605,33.7157348 L117.333605,33.7157348 Z M106.535875,33.2736766 C106.157007,33.7157348 105.525561,34.2209442 105.020405,34.4735488 C104.578392,34.6630023 104.199524,34.7261535 103.883801,34.7261535 C103.504934,34.7261535 103.062922,34.6630023 102.684054,34.3472465 C102.557764,34.2209442 102.305186,33.9051883 102.305186,33.399979 C102.305186,32.8947697 102.557764,32.5790137 102.747198,32.3895602 C103.062922,32.0738044 103.694368,31.8843509 104.199524,31.7580486 C104.95726,31.6317463 106.409586,31.5685951 106.535875,31.5685951 L106.535875,33.2736766 L106.535875,33.2736766 L106.535875,33.2736766 Z M101.989463,28.7899437 C102.431475,28.5373391 102.810343,28.3478855 103.252355,28.2215832 C103.694368,28.0952808 104.13638,27.9689785 104.704681,27.9689785 C105.146694,27.9689785 105.77814,28.0321297 106.093863,28.3478855 C106.535875,28.7267926 106.535875,29.4214554 106.535875,29.9898159 L106.535875,30.1161183 C105.77814,30.1161183 104.767826,30.1792694 103.883801,30.3055717 C103.189211,30.4318741 102.052607,30.6213276 101.294872,31.3791416 C100.916005,31.7580486 100.473992,32.3895602 100.473992,33.3368278 C100.473992,34.2840953 100.85286,34.9787581 101.294872,35.3576651 C101.989463,36.052328 102.810343,36.1154792 103.568079,36.1154792 C104.452103,36.1154792 105.083549,35.9260257 105.525561,35.7365722 C105.967574,35.5471187 106.409586,35.1050605 106.72531,34.7893047 C106.851598,35.1682116 107.041032,35.5471187 107.356755,35.7997234 C107.735623,36.052328 108.303924,36.2417815 108.935371,36.052328 L109.187949,34.6630023 C108.872226,34.7261535 108.556503,34.6630023 108.430213,34.4735488 C108.177635,34.2209442 108.24078,33.5894325 108.24078,33.1473743 L108.24078,29.9898159 C108.24078,29.295153 108.24078,28.2215832 107.54619,27.4637692 C107.104177,26.9585598 106.283297,26.5796528 104.830971,26.5796528 C103.631223,26.5796528 102.431475,26.8322575 101.231728,27.6532227 L101.989463,28.7899437 L101.989463,28.7899437 L101.989463,28.7899437 Z M94.4121089,23.8641526 L100.284558,23.8641526 L100.284558,22.2222222 L92.5177704,22.2222222 L92.5177704,35.9260257 L94.4121089,35.9260257 L94.4121089,29.4214554 L99.2110998,29.4214554 L99.2110998,27.779525 L94.4121089,27.779525 L94.4121089,23.8641526 L94.4121089,23.8641526 L94.4121089,23.8641526 Z M83.2986563,33.2736766 C82.9197886,33.7157348 82.2883425,34.2209442 81.7831855,34.4735488 C81.3411732,34.6630023 80.9623054,34.7261535 80.6465823,34.7261535 C80.2677147,34.7261535 79.8257023,34.6630023 79.4468347,34.3472465 C79.3205454,34.2209442 79.0679669,33.9051883 79.0679669,33.399979 C79.0679669,32.8947697 79.3205454,32.5790137 79.5099793,32.3895602 C79.8257023,32.0738044 80.4571485,31.8843509 80.9623054,31.7580486 C81.7200409,31.6317463 83.172367,31.5685951 83.2986563,31.5685951 L83.2986563,33.2736766 L83.2986563,33.2736766 L83.2986563,33.2736766 Z M78.7522438,28.7899437 C79.1942562,28.5373391 79.5731239,28.3478855 80.0151362,28.2215832 C80.4571485,28.0952808 80.8991609,27.9689785 81.4674625,27.9689785 C81.9094747,27.9689785 82.5409209,28.0321297 82.8566439,28.3478855 C83.2986563,28.7267926 83.2986563,29.4214554 83.2986563,29.9898159 L83.2986563,30.1161183 C82.5409209,30.1161183 81.530607,30.1792694 80.709727,30.3055717 C80.0151362,30.4318741 78.8785331,30.6213276 78.1207977,31.3791416 C77.74193,31.7580486 77.2999177,32.3895602 77.2999177,33.3368278 C77.2999177,34.2840953 77.74193,34.9787581 78.1207977,35.3576651 C78.8153885,36.052328 79.6362685,36.1154792 80.3940039,36.1154792 C81.2780285,36.1154792 81.9094747,35.9260257 82.351487,35.7365722 C82.7934994,35.5471187 83.2355117,35.1050605 83.5512348,34.7893047 C83.6775241,35.1682116 83.8669579,35.5471187 84.182681,35.7997234 C84.5615486,36.052328 85.1298502,36.2417815 85.7612964,36.052328 L86.0138748,34.6630023 C85.6981517,34.7261535 85.3824286,34.6630023 85.2561395,34.4735488 C85.003561,34.2209442 85.0667056,33.5894325 85.0667056,33.1473743 L85.0667056,29.9898159 C85.0667056,29.295153 85.0667056,28.2215832 84.3721148,27.4637692 C83.9301025,26.9585598 83.1092225,26.5796528 81.6568963,26.5796528 C80.4571485,26.5796528 79.2574009,26.8322575 78.0576531,27.6532227 L78.7522438,28.7899437 L78.7522438,28.7899437 L78.7522438,28.7899437 Z M72.0589145,26.7691063 L70.6697329,26.7691063 L70.6697329,28.158432 L72.0589145,28.158432 L72.0589145,33.1473743 C72.0589145,33.9051883 72.0589145,34.915607 72.7535053,35.5471187 C73.2586622,36.052328 74.0163976,36.1154792 74.5846991,36.1154792 C74.9635669,36.1154792 75.4055791,36.1154792 75.8475915,35.9891769 C76.1633146,35.9260257 76.4158931,35.7997234 76.6684715,35.673421 L76.10017,34.4103977 C75.9738807,34.4735488 75.7844469,34.5367 75.6581577,34.5998512 C75.4687238,34.6630023 75.0898561,34.7261535 74.9004222,34.7261535 C74.5215546,34.7261535 74.2058315,34.5998512 74.0163976,34.4735488 C73.7006746,34.157793 73.7006746,33.5894325 73.7006746,33.021072 L73.7006746,28.2215832 L75.595013,28.2215832 L75.595013,26.8322575 L73.7006746,26.8322575 L73.7006746,24.4325131 L72.0589145,24.4325131 L72.0589145,26.7691063 L72.0589145,26.7691063 L72.0589145,26.7691063 L72.0589145,26.7691063 Z M67.1967789,33.2736766 C66.8179112,33.7157348 66.1864651,34.2209442 65.6813082,34.4735488 C65.3024404,34.6630023 64.8604282,34.7261535 64.5447051,34.7261535 C64.1658373,34.7261535 63.7238251,34.6630023 63.3449573,34.3472465 C63.218668,34.2209442 62.9660896,33.9051883 62.9660896,33.399979 C62.9660896,32.8947697 63.218668,32.5790137 63.408102,32.3895602 C63.7238251,32.0738044 64.3552712,31.8843509 64.8604282,31.7580486 C65.6181635,31.6317463 67.0704898,31.5685951 67.1967789,31.5685951 L67.1967789,33.2736766 L67.1967789,33.2736766 L67.1967789,33.2736766 Z M62.5872219,28.7899437 C63.0292342,28.5373391 63.408102,28.3478855 63.8501142,28.2215832 C64.2921266,28.0952808 64.7341389,27.9689785 65.3024404,27.9689785 C65.7444527,27.9689785 66.3758989,28.0321297 66.691622,28.3478855 C67.1336343,28.7267926 67.1336343,29.4214554 67.1336343,29.9898159 L67.1336343,30.1161183 C66.3758989,30.1161183 65.3024404,30.1792694 64.4815604,30.3055717 C63.7869696,30.4318741 62.6503666,30.6213276 61.8926311,31.3791416 C61.5137635,31.7580486 61.0717511,32.3895602 61.0717511,33.3368278 C61.0717511,34.2840953 61.4506188,34.9787581 61.8926311,35.3576651 C62.5872219,36.052328 63.408102,36.1154792 64.1658373,36.1154792 C65.049862,36.1154792 65.6813082,35.9260257 66.1233205,35.7365722 C66.5653327,35.5471187 67.0073451,35.1050605 67.3230682,34.7893047 C67.4493574,35.1682116 67.6387912,35.5471187 67.9545143,35.7997234 C68.3333821,36.052328 68.9016836,36.2417815 69.5331298,36.052328 L69.7857083,34.6630023 C69.4699852,34.7261535 69.1542621,34.6630023 69.0279728,34.4735488 C68.7753943,34.2209442 68.838539,33.5894325 68.838539,33.1473743 L68.838539,29.9898159 C68.838539,29.295153 68.838539,28.2215832 68.1439482,27.4637692 C67.7019359,26.9585598 66.8810558,26.5796528 65.4287296,26.5796528 C64.228982,26.5796528 63.0292342,26.8322575 61.8294865,27.6532227 L62.5872219,28.7899437 L62.5872219,28.7899437 L62.5872219,28.7899437 Z M50.9686124,23.8641526 L52.6735171,23.8641526 C54.1258432,23.8641526 55.5781694,24.0536061 56.4621941,25.0008736 C57.5987972,26.1375947 57.5987972,28.0952808 57.5987972,29.0425484 C57.5987972,29.9898159 57.5356525,32.0106533 56.4621941,33.1473743 C55.5150248,34.0946418 54.0626987,34.2840953 52.6735171,34.2840953 L50.9686124,34.2840953 L50.9686124,23.8641526 L50.9686124,23.8641526 L50.9686124,23.8641526 Z M49.0742739,22.2222222 L49.0742739,35.9260257 L52.4209385,35.9260257 C54.5678556,35.9260257 56.5253387,35.673421 57.9145203,34.2840953 C59.429991,32.7684673 59.6194249,30.6213276 59.6194249,29.1688507 C59.6194249,26.0112923 58.609111,24.4956643 57.8513756,23.8010014 C56.967351,22.9800363 55.3255909,22.2222222 52.4209385,22.2222222 L49.0742739,22.2222222 L49.0742739,22.2222222 L49.0742739,22.2222222 L49.0742739,22.2222222 Z" id="Shape" fill="#000000"></path>
                <path d="M106.427546,4.75870861 L104.240959,7.84597429 L102.054372,4.75870861 L100.06072,4.75870861 L103.276288,9.13233498 L99.610541,14.0848237 L101.668505,14.0848237 L104.30527,10.4186957 L106.942037,14.0848237 L109,14.0848237 L105.334253,9.13233498 L108.549821,4.75870861 L106.427546,4.75870861 L106.427546,4.75870861 L106.427546,4.75870861 Z M97.7455114,11.8336925 C96.780841,12.7984629 95.6875479,12.862781 95.173057,12.862781 C93.758207,12.862781 92.4719797,11.7050564 92.4076683,9.77551533 L99.0960501,9.77551533 C99.0960501,7.65302018 98.195691,4.56575451 94.9158115,4.56575451 C91.9574888,4.56575451 90.5426388,7.1384759 90.5426388,9.51824319 C90.5426388,10.93324 91.0571297,12.2196007 91.8931774,13.0557351 C92.9221593,14.1491417 94.0797637,14.2777778 95.173057,14.2777778 C97.0380865,14.2777778 98.0670682,13.6345975 98.8388047,12.7984629 L97.7455114,11.8336925 L97.7455114,11.8336925 L97.7455114,11.8336925 Z M92.4719797,8.29620052 C92.6649138,6.75256769 93.758207,5.98075127 94.8515001,5.98075127 C95.9447933,5.98075127 96.9737751,6.75256769 97.1667092,8.29620052 L92.4719797,8.29620052 L92.4719797,8.29620052 L92.4719797,8.29620052 Z M88.5489866,0.0634920635 L86.8768911,0.0634920635 L86.8768911,5.72347913 C85.976532,4.63007254 84.9475503,4.50143646 84.1758139,4.50143646 C83.2111434,4.50143646 82.1178503,4.69439057 81.2174912,5.6591611 C80.6386889,6.23802341 79.931264,7.39574804 79.931264,9.51824319 C79.931264,10.8046039 80.1885094,12.1552826 81.2174912,13.1843712 C82.0535389,14.0205056 82.8895866,14.2134597 83.9185685,14.2134597 C84.7546162,14.2134597 85.976532,14.0848237 86.8768911,12.991417 L86.8768911,13.9561876 L88.5489866,13.9561876 L88.5489866,0.0634920635 L88.5489866,0.0634920635 L88.5489866,0.0634920635 L88.5489866,0.0634920635 Z M86.8768911,11.190512 C86.4910229,11.7693744 85.976532,12.1552826 85.783598,12.2839187 C85.2691071,12.6698269 84.8189275,12.7984629 84.2401252,12.7984629 C83.4040775,12.7984629 82.8252752,12.4768728 82.4394071,11.8980104 C81.8606048,11.190512 81.7319821,10.2900596 81.7319821,9.51824319 C81.7319821,8.87506284 81.7962935,7.91029232 82.3107843,7.1384759 C82.8895866,6.23802341 83.7256343,5.98075127 84.4330594,5.98075127 C85.2047957,5.98075127 86.0408434,6.30234144 86.8768911,7.33143 L86.8768911,11.190512 L86.8768911,11.190512 L86.8768911,11.190512 L86.8768911,11.190512 Z M70.1559367,4.75870861 L70.1559367,14.0848237 L71.8280322,14.0848237 L71.8280322,7.78165624 C72.0852777,7.39574804 72.4711458,7.00983983 72.9856367,6.62393162 C73.5001277,6.23802341 73.9503072,6.04506931 74.6577321,6.04506931 C75.3651572,6.04506931 75.7510254,6.36665948 75.9439595,6.62393162 C76.1368935,6.9455218 76.2655163,7.46006608 76.2655163,8.16756445 L76.2655163,14.1491417 L77.9376117,14.1491417 L77.9376117,8.16756445 C77.9376117,7.20279393 77.8733003,6.10938734 77.1658754,5.40188895 C76.4584503,4.69439057 75.4294686,4.63007254 74.9149776,4.63007254 C74.271864,4.63007254 73.6930618,4.69439057 73.1142595,5.01598075 C72.5354572,5.33757092 72.0209663,5.8521152 71.9566549,5.91643323 L71.9566549,4.82302664 L70.1559367,4.82302664 L70.1559367,4.75870861 L70.1559367,4.75870861 L70.1559367,4.75870861 Z M65.6541413,11.3191482 C65.2682732,11.7693744 64.6251596,12.2839187 64.1106687,12.5411908 C63.6604891,12.734145 63.274621,12.7984629 62.9530642,12.7984629 C62.5671959,12.7984629 62.1170164,12.734145 61.7311482,12.4125548 C61.6025256,12.2839187 61.3452801,11.9623285 61.3452801,11.4477842 C61.3452801,10.93324 61.6025256,10.6116498 61.7954596,10.4186957 C62.1170164,10.0971055 62.7601301,9.9041514 63.274621,9.77551533 C64.0463573,9.64687925 65.5255187,9.58256122 65.6541413,9.58256122 L65.6541413,11.3191482 L65.6541413,11.3191482 L65.6541413,11.3191482 Z M60.9594119,6.75256769 C61.4095914,6.49529555 61.7954596,6.30234144 62.2456391,6.17370538 C62.6958187,6.04506931 63.1459982,5.91643323 63.7248005,5.91643323 C64.1749801,5.91643323 64.8180936,5.98075127 65.1396505,6.36665948 C65.5898301,6.75256769 65.5898301,7.46006608 65.5898301,8.03892839 L65.5898301,8.16756445 C64.8180936,8.16756445 63.7891119,8.23188249 62.9530642,8.36051856 C62.2456391,8.48915463 61.0880347,8.68210873 60.3162982,9.45392515 C59.9304301,9.83983336 59.4802505,10.4830137 59.4802505,11.4477842 C59.4802505,12.4125548 59.9304301,13.1200532 60.3162982,13.5059613 C61.0237233,14.2134597 61.859771,14.2777778 62.6315073,14.2777778 C63.5318664,14.2777778 64.1749801,14.0848237 64.6251596,13.8275516 C65.0753391,13.6345975 65.5255187,13.1843712 65.8470755,12.862781 C65.9756982,13.2486892 66.1686323,13.6345975 66.4901891,13.8918695 C66.8760573,14.1491417 67.4548595,14.3420958 68.0979732,14.1491417 L68.3552186,12.734145 C68.0336618,12.7984629 67.712105,12.734145 67.5834823,12.5411908 C67.3262368,12.2839187 67.3905482,11.6407383 67.3905482,11.190512 L67.3905482,7.97461035 C67.3905482,7.26711196 67.3905482,6.17370538 66.6831232,5.40188895 C66.2329436,4.88734468 65.3968959,4.50143646 63.9177346,4.50143646 C62.6958187,4.50143646 61.4739028,4.75870861 60.251987,5.59484306 L60.9594119,6.75256769 L60.9594119,6.75256769 L60.9594119,6.75256769 Z M54.592587,6.81688572 L50.9268393,0.127810098 L48.8045643,0.127810098 L53.6922279,8.74642676 L53.6922279,14.0848237 L55.6215688,14.0848237 L55.6215688,8.74642676 L60.5092324,0.127810098 L58.3869574,0.127810098 L54.592587,6.81688572 L54.592587,6.81688572 L54.592587,6.81688572 Z" id="Shape" fill="#000000"></path>
                <path d="M0,0 L0,18 L13.8325123,18 L19.4039409,27 L13.8965517,36 L27.8571429,36 L39,18.0320856 L27.8571429,0 L0,0 Z" id="Shape" fill="#FFCC00"></path>
                <path d="M4.98076923,36 L0,36 L0,29 L4.98076923,29 L7,32.4999999 L4.98076923,36 L4.98076923,36 Z" id="Shape" fill="#FF0000"></path>
            </g>
        </g>
    </g>
</svg>